<svg width="48" height="48" viewBox="0 0 48 48" fill="none" xmlns="http://www.w3.org/2000/svg">
<path d="M30 24C30 25.1867 29.6481 26.3467 28.9888 27.3334C28.3295 28.3201 27.3925 29.0892 26.2961 29.5433C25.1997 29.9974 23.9933 30.1162 22.8295 29.8847C21.6656 29.6532 20.5965 29.0818 19.7574 28.2426C18.9182 27.4035 18.3468 26.3344 18.1153 25.1705C17.8838 24.0067 18.0026 22.8003 18.4567 21.7039C18.9108 20.6075 19.6799 19.6705 20.6666 19.0112C21.6533 18.3519 22.8133 18 24 18C25.5898 18.0049 27.113 18.6387 28.2372 19.7628C29.3613 20.887 29.9951 22.4102 30 24ZM42.75 15.75V32.25C42.75 35.0348 41.6438 37.7055 39.6746 39.6746C37.7055 41.6438 35.0348 42.75 32.25 42.75H15.75C12.9652 42.75 10.2945 41.6438 8.32538 39.6746C6.35625 37.7055 5.25 35.0348 5.25 32.25V15.75C5.25 12.9652 6.35625 10.2945 8.32538 8.32538C10.2945 6.35625 12.9652 5.25 15.75 5.25H32.25C35.0348 5.25 37.7055 6.35625 39.6746 8.32538C41.6438 10.2945 42.75 12.9652 42.75 15.75ZM33 24C33 22.22 32.4722 20.4799 31.4832 18.9999C30.4943 17.5198 29.0887 16.3663 27.4442 15.6851C25.7996 15.0039 23.99 14.8257 22.2442 15.1729C20.4984 15.5202 18.8947 16.3774 17.636 17.636C16.3774 18.8947 15.5202 20.4984 15.1729 22.2442C14.8257 23.99 15.0039 25.7996 15.6851 27.4442C16.3663 29.0887 17.5198 30.4943 18.9999 31.4832C20.4799 32.4722 22.22 33 24 33C26.3869 33 28.6761 32.0518 30.364 30.364C32.0518 28.6761 33 26.3869 33 24ZM36 14.25C36 13.805 35.868 13.37 35.6208 13C35.3736 12.63 35.0222 12.3416 34.611 12.1713C34.1999 12.001 33.7475 11.9564 33.311 12.0432C32.8746 12.13 32.4737 12.3443 32.159 12.659C31.8443 12.9737 31.63 13.3746 31.5432 13.811C31.4564 14.2475 31.501 14.6999 31.6713 15.111C31.8416 15.5222 32.13 15.8736 32.5 16.1208C32.87 16.368 33.305 16.5 33.75 16.5C34.3467 16.5 34.919 16.2629 35.341 15.841C35.7629 15.419 36 14.8467 36 14.25Z" fill="#606C38"/>
</svg>
