<svg width="40" height="40" viewBox="0 0 40 40" fill="none" xmlns="http://www.w3.org/2000/svg">
<path d="M27.1998 33.3333C21.7562 33.3263 16.5376 31.1607 12.6884 27.3115C8.83915 23.4622 6.67356 18.2436 6.6665 12.8C6.6665 11.1733 7.31269 9.61329 8.46292 8.46307C9.61314 7.31285 11.1732 6.66666 12.7998 6.66666C13.1443 6.66403 13.4882 6.69529 13.8265 6.75999C14.1536 6.80839 14.4751 6.88878 14.7865 6.99999C15.0055 7.07683 15.2006 7.2095 15.3526 7.38489C15.5047 7.56027 15.6082 7.77229 15.6532 7.99999L17.4798 16C17.5291 16.2171 17.5231 16.4432 17.4626 16.6574C17.402 16.8717 17.2888 17.0674 17.1332 17.2267C16.9598 17.4133 16.9465 17.4267 15.3065 18.28C16.6198 21.1611 18.9241 23.4749 21.7998 24.8C22.6665 23.1467 22.6798 23.1333 22.8665 22.96C23.0258 22.8044 23.2215 22.6911 23.4357 22.6306C23.65 22.57 23.876 22.5641 24.0932 22.6133L32.0932 24.44C32.3136 24.4911 32.5173 24.5975 32.6853 24.7491C32.8532 24.9007 32.9798 25.0926 33.0532 25.3067C33.1657 25.6231 33.2505 25.9488 33.3065 26.28C33.3602 26.6151 33.3869 26.954 33.3865 27.2933C33.3619 28.913 32.6976 30.4572 31.5385 31.5889C30.3794 32.7205 28.8197 33.3476 27.1998 33.3333ZM12.7998 9.33332C11.8815 9.33683 11.0018 9.7032 10.3524 10.3526C9.70305 11.0019 9.33668 11.8817 9.33317 12.8C9.3367 17.5374 11.2202 22.0798 14.5701 25.4297C17.92 28.7796 22.4624 30.6631 27.1998 30.6667C28.1182 30.6631 28.9979 30.2968 29.6473 29.6474C30.2966 28.998 30.663 28.1183 30.6665 27.2V26.76L24.4798 25.3333L24.0932 26.0667C23.4932 27.2267 23.0532 28.0667 21.9332 27.6133C19.7237 26.8225 17.7181 25.5494 16.0622 23.8865C14.4062 22.2236 13.1415 20.2128 12.3598 18C11.8798 16.96 12.7865 16.48 13.9332 15.88L14.6665 15.52L13.2398 9.33332H12.7998Z" fill="#606C38"/>
</svg>
