<svg width="48" height="42" viewBox="0 0 48 42" fill="none" xmlns="http://www.w3.org/2000/svg">
<path d="M27.0142 21L22.6284 23.9848V18.0152L27.0142 21Z" fill="#606C38"/>
<path fill-rule="evenodd" clip-rule="evenodd" d="M7.55921 4.96441C18.3966 2.59363 29.6031 2.59363 40.4406 4.96441C41.6099 5.22009 42.6579 5.87748 43.4097 6.82684C44.1615 7.77619 44.5715 8.96006 44.5713 10.1808V31.8192C44.5713 34.3336 42.8488 36.5092 40.4406 37.0356C29.6032 39.4065 18.3966 39.4065 7.55921 37.0356C6.3899 36.7799 5.34188 36.1225 4.59011 35.1732C3.83834 34.2238 3.42831 33.04 3.42847 31.8192V10.1808C3.42847 7.66641 5.15098 5.49081 7.55921 4.96441ZM22.0168 14.2352C21.8103 14.0949 21.5704 14.0144 21.3226 14.0023C21.0748 13.9902 20.8284 14.047 20.6097 14.1665C20.391 14.286 20.2082 14.4639 20.0807 14.6811C19.9532 14.8983 19.8857 15.1468 19.8856 15.4V26.6C19.8857 26.8532 19.9532 27.1017 20.0807 27.3189C20.2082 27.5361 20.391 27.714 20.6097 27.8335C20.8284 27.9531 21.0748 28.0098 21.3226 27.9977C21.5704 27.9856 21.8103 27.9051 22.0168 27.7648L30.2454 22.1648C30.4332 22.037 30.5872 21.8637 30.6937 21.6606C30.8002 21.4574 30.856 21.2305 30.856 21C30.856 20.7696 30.8002 20.5427 30.6937 20.3395C30.5872 20.1363 30.4332 19.9631 30.2454 19.8352L22.0168 14.2352Z" fill="#606C38"/>
</svg>
